<svg version="1.1" viewBox="0.0 0.0 144.5538057742782 127.7217847769029" fill="none" stroke="none" stroke-linecap="square" stroke-miterlimit="10" xmlns:xlink="http://www.w3.org/1999/xlink" xmlns="http://www.w3.org/2000/svg" style="width: 100px;height: 100px;background: #fff;"><clipPath id="p.0"><path d="m0 0l144.5538 0l0 127.72179l-144.5538 0l0 -127.72179z" clip-rule="nonzero"/></clipPath><g clip-path="url(#p.0)"><path fill="#000000" fill-opacity="0.0" d="m0 0l144.5538 0l0 127.72179l-144.5538 0z" fill-rule="evenodd"/><path fill="#3c78d8" d="m26.757217 45.274277l0 0c0 -23.091589 18.959156 -41.811024 42.34646 -41.811024l0 0c11.23098 0 22.00196 4.405077 29.943466 12.246165c7.941498 7.8410883 12.402992 18.475887 12.402992 29.564857l0 0c0 23.09159 -18.95916 41.811028 -42.34646 41.811028l0 0c-23.387302 0 -42.34646 -18.719437 -42.34646 -41.811028z" fill-rule="evenodd"/><path fill="#3c78d8" d="m86.48425 39.591976l43.46457 18.062992l-43.46457 18.062988z" fill-rule="evenodd"/><path fill="#ffffff" d="m86.48425 29.030184l9.889763 0l0 24.25197l-9.889763 0z" fill-rule="evenodd"/><path fill="#3c78d8" d="m30.751074 67.56932l15.312296 -10.780643l40.42044 13.406902l-73.85827 52.0z" fill-rule="evenodd"/></g></svg>