<svg version="1.1" viewBox="0.0 0.0 368.0 254.3989501312336" fill="none" stroke="none" stroke-linecap="square" stroke-miterlimit="10" xmlns:xlink="http://www.w3.org/1999/xlink" xmlns="http://www.w3.org/2000/svg"><clipPath id="p.0"><path d="m0 0l368.0 0l0 254.39896l-368.0 0l0 -254.39896z" clip-rule="nonzero"/></clipPath><g clip-path="url(#p.0)"><path fill="#000000" fill-opacity="0.0" d="m0 0l368.0 0l0 254.39896l-368.0 0z" fill-rule="evenodd"/><path fill="#cccccc" d="m123.892075 105.70311l16.291336 -65.16536l77.244095 0l16.291336 65.16536z" fill-rule="evenodd"/><path fill="#cccccc" d="m121.78084 137.48294l27.910767 -53.007874l58.225708 0l27.910767 53.007874z" fill-rule="evenodd"/><path fill="#cccccc" d="m146.86969 44.95538l10.314957 -24.535433l10.314957 24.535433z" fill-rule="evenodd"/><path fill="#cccccc" d="m188.46616 44.959873l10.314957 -24.535435l10.314957 24.535435z" fill-rule="evenodd"/><path fill="#000000" fill-opacity="0.0" d="m22.313648 168.83202l323.37006 0l0 51.716537l-323.37006 0z" fill-rule="evenodd"/><path fill="#000000" d="m54.266773 185.71327q-0.140625 0.28125 -0.234375 0.609375q-0.09375 0.3125 -0.171875 0.71875q-0.203125 1.0625 -0.5625 2.328125q-0.34375 1.265625 -0.84375 2.609375q-0.484375 1.34375 -1.140625 2.609375q-0.640625 1.265625 -1.421875 2.28125q-1.21875 1.546875 -2.71875 2.90625q-1.484375 1.34375 -3.40625 2.40625q-1.921875 1.0625 -4.375 1.84375l-1.8125 -2.0q2.609375 -0.671875 4.515625 -1.609375q1.90625 -0.953125 3.34375 -2.171875q1.4375 -1.234375 2.53125 -2.65625q0.96875 -1.1875 1.671875 -2.734375q0.703125 -1.546875 1.171875 -3.109375q0.46875 -1.5625 0.65625 -2.84375q-0.375 0 -1.421875 0q-1.03125 0 -2.453125 0q-1.40625 0 -2.9375 0q-1.53125 0 -2.953125 0q-1.40625 0 -2.453125 0q-1.03125 0 -1.40625 0q-0.796875 0 -1.46875 0.03125q-0.671875 0.03125 -1.203125 0.046875l0 -2.34375q0.375 0.03125 0.828125 0.09375q0.453125 0.046875 0.9375 0.0625q0.484375 0.015625 0.90625 0.015625q0.3125 0 1.140625 0q0.828125 0 1.953125 0q1.140625 0 2.4375 0q1.296875 0 2.5625 0q1.265625 0 2.359375 0q1.109375 0 1.875 0q0.78125 0 1.046875 0q0.296875 0 0.671875 -0.015625q0.375 -0.015625 0.75 -0.125l1.625 1.046875zm26.765537 4.25q-0.109375 0.171875 -0.28125 0.375q-0.15625 0.1875 -0.25 0.359375q-0.296875 0.46875 -0.84375 1.265625q-0.546875 0.78125 -1.265625 1.703125q-0.71875 0.921875 -1.5625 1.78125q-0.84375 0.859375 -1.75 1.484375l-1.734375 -1.203125q0.9375 -0.59375 1.84375 -1.453125q0.90625 -0.859375 1.640625 -1.78125q0.734375 -0.921875 1.109375 -1.5625q-0.375 0 -1.375 0q-1.0 0 -2.34375 0q-1.34375 0 -2.8125 -0.015625q-1.46875 -0.015625 -2.796875 -0.015625q-1.3125 0 -2.234375 0q-0.921875 0 -1.1875 0q-0.578125 0 -1.2343788 0.03125q-0.65625 0.03125 -1.265625 0.078125l0 -2.21875q0.5625 0.09375 1.234375 0.140625q0.6875038 0.046875 1.2656288 0.046875q0.265625 0 1.21875 0q0.96875 0 2.359375 0q1.40625 0 2.921875 0q1.53125 0 2.921875 0q1.40625 0 2.421875 0q1.03125 0 1.328125 0q0.21875 0 0.5 -0.015625q0.28125 -0.03125 0.546875 -0.046875q0.265625 -0.03125 0.421875 -0.0625l1.203125 1.109375zm-8.96875 2.75q0 1.703125 -0.125 3.21875q-0.109375 1.5 -0.453125 2.84375q-0.34375 1.34375 -1.03125 2.53125q-0.671875 1.1875 -1.796875 2.21875q-1.125 1.046875 -2.796875 2.015625l-1.8906288 -1.5q0.4531288 -0.15625 0.9218788 -0.390625q0.46875 -0.21875 0.921875 -0.515625q1.8125 -1.203125 2.671875 -2.578125q0.859375 -1.390625 1.140625 -2.953125q0.28125 -1.5625 0.28125 -3.28125q0 -0.40625 -0.046875 -0.8125q-0.03125 -0.421875 -0.109375 -0.796875l2.3125 0zm14.859283 1.09375q3.453125 -0.9375 6.4375 -2.265625q3.0 -1.328125 5.203125 -2.71875q1.390625 -0.875 2.703125 -1.90625q1.328125 -1.03125 2.5 -2.140625q1.171875 -1.125 2.078125 -2.21875l1.78125 1.65625q-1.109375 1.203125 -2.421875 2.34375q-1.3125 1.140625 -2.765625 2.203125q-1.453125 1.046875 -3.015625 2.03125q-1.46875 0.890625 -3.3125 1.828125q-1.828125 0.921875 -3.921875 1.75q-2.078125 0.828125 -4.203125 1.515625l-1.0625 -2.078125zm11.21875 -3.859375l2.296875 -0.703125l0 12.15625q0 0.515625 0 1.078125q0.015625 0.546875 0.046875 1.03125q0.046875 0.484375 0.109375 0.75l-2.609375 0q0.015625 -0.265625 0.0625 -0.75q0.046875 -0.484375 0.0625 -1.03125q0.03125 -0.5625 0.03125 -1.078125l0 -11.453125zm27.109283 12.921875q0.078125 -0.3125 0.109375 -0.703125q0.046875 -0.390625 0.046875 -0.78125q0 -0.265625 0 -1.171875q0 -0.90625 0 -2.21875q0 -1.328125 0 -2.875q0 -1.546875 0 -3.109375q0 -1.5625 0 -2.921875q0 -1.359375 0 -2.34375q0 -0.984375 0 -1.328125q0 -0.78125 -0.0625 -1.296875q-0.046875 -0.515625 -0.0625 -0.671875l2.453125 0q0 0.15625 -0.0625 0.6875q-0.046875 0.53125 -0.046875 1.28125q0 0.375 0 1.328125q0 0.9375 0 2.28125q0 1.34375 0 2.875q0 1.53125 0 3.03125q0 1.484375 0 2.75q0 1.265625 0 2.09375q0 0.828125 0 1.015625q1.2499924 -0.578125 2.6562424 -1.53125q1.421875 -0.96875 2.765625 -2.25q1.34375 -1.28125 2.359375 -2.78125l1.25 1.8125q-1.140625 1.546875 -2.671875 2.96875q-1.53125 1.40625 -3.1875 2.53125q-1.65625 1.125 -3.2343674 1.890625q-0.3125 0.1875 -0.546875 0.34375q-0.21875 0.15625 -0.359375 0.265625l-1.40625 -1.171875zm-12.203125 -0.125q1.671875 -1.203125 2.84375 -2.90625q1.171875 -1.703125 1.78125 -3.65625q0.296875 -0.90625 0.453125 -2.265625q0.171875 -1.359375 0.25 -2.890625q0.078125 -1.53125 0.09375 -2.984375q0.015625 -1.453125 0.015625 -2.578125q0 -0.578125 -0.0625 -1.046875q-0.046875 -0.46875 -0.125 -0.890625l2.453125 0q-0.03125 0.15625 -0.0625 0.46875q-0.015625 0.296875 -0.046875 0.671875q-0.03125 0.375 -0.03125 0.765625q0 1.125 -0.03125 2.640625q-0.015625 1.5 -0.109375 3.140625q-0.09375 1.640625 -0.25 3.109375q-0.140625 1.453125 -0.4375 2.453125q-0.578125 2.125 -1.828125 4.015625q-1.234375 1.890625 -2.90625 3.3125l-2.0 -1.359375zm37.15615 -20.390625q-0.15625 0.796875 -0.421875 1.875q-0.25 1.078125 -0.8125 2.4375q-0.46875 1.203125 -1.1875 2.484375q-0.703125 1.265625 -1.5 2.3125q0.5 -0.3125 1.140625 -0.53125q0.640625 -0.234375 1.3125 -0.34375q0.6875 -0.109375 1.25 -0.109375q1.546875 0 2.609375 0.875q1.078125 0.859375 1.078125 2.515625q0 0.5 0 1.296875q0 0.78125 0 1.65625q0.015625 0.859375 0.046875 1.6875q0.03125 0.8125 0.03125 1.4375l-2.0625 0q0.03125 -0.546875 0.046875 -1.265625q0.03125 -0.71875 0.046875 -1.515625q0.015625 -0.796875 0 -1.515625q-0.015625 -0.71875 -0.015625 -1.234375q0 -1.171875 -0.703125 -1.71875q-0.703125 -0.546875 -1.765625 -0.546875q-1.25 0 -2.46875 0.546875q-1.21875 0.546875 -2.125 1.40625q-0.578125 0.5625 -1.15625 1.265625q-0.578125 0.703125 -1.265625 1.5l-1.8125 -1.328125q1.921875 -1.859375 3.203125 -3.484375q1.28125 -1.640625 2.078125 -3.03125q0.796875 -1.40625 1.25 -2.515625q0.421875 -1.125 0.6875 -2.25q0.265625 -1.140625 0.328125 -2.09375l2.1875 0.1875zm-9.125 2.875q1.078125 0.125 2.328125 0.21875q1.25 0.078125 2.1875 0.078125q1.78125 0 3.828125 -0.09375q2.0625 -0.09375 4.140625 -0.28125q2.09375 -0.1875 4.0 -0.53125l-0.03125 1.96875q-1.390625 0.234375 -2.96875 0.390625q-1.5625 0.140625 -3.1875 0.234375q-1.625 0.09375 -3.140625 0.140625q-1.5 0.03125 -2.78125 0.03125q-0.5625 0 -1.296875 -0.015625q-0.734375 -0.015625 -1.53125 -0.046875q-0.796875 -0.046875 -1.546875 -0.09375l0 -2.0zm20.375 6.453125q-0.34375 0.078125 -0.765625 0.234375q-0.40625 0.140625 -0.828125 0.296875q-0.40625 0.15625 -0.78125 0.3125q-1.390625 0.53125 -3.234375 1.3125q-1.828125 0.765625 -3.75 1.78125q-1.328125 0.671875 -2.34375 1.40625q-1.015625 0.734375 -1.609375 1.515625q-0.578125 0.78125 -0.578125 1.71875q0 0.765625 0.359375 1.25q0.359375 0.484375 1.015625 0.734375q0.671875 0.25 1.53125 0.34375q0.875 0.078125 1.921875 0.078125q1.546875 0 3.53125 -0.171875q1.984375 -0.1875 3.734375 -0.46875l-0.046875 2.125q-1.015625 0.140625 -2.28125 0.234375q-1.265625 0.109375 -2.5625 0.171875q-1.28125 0.078125 -2.453125 0.078125q-1.90625 0 -3.46875 -0.359375q-1.546875 -0.34375 -2.484375 -1.21875q-0.9375 -0.875 -0.9375 -2.5q0 -1.203125 0.5625 -2.203125q0.5625 -1.0 1.5 -1.828125q0.953125 -0.828125 2.09375 -1.53125q1.15625 -0.703125 2.359375 -1.296875q1.28125 -0.6875 2.40625 -1.1875q1.140625 -0.515625 2.140625 -0.9375q1.015625 -0.421875 1.890625 -0.859375q0.59375 -0.265625 1.125 -0.5q0.53125 -0.25 1.0625 -0.53125l0.890625 2.0zm9.828033 1.171875l13.25 0l0 1.640625l-13.25 0l0 -1.640625zm-0.484375 4.546875l14.296875 0l0 1.71875l-14.296875 0l0 -1.71875zm8.890625 -4.046875l1.78125 0l0 11.703125l-1.78125 0l0 -11.703125zm-5.5 0.078125l1.765625 0l0 4.875q0 0.625 -0.171875 1.515625q-0.15625 0.890625 -0.546875 1.90625q-0.375 1.015625 -1.09375 1.984375q-0.71875 0.96875 -1.84375 1.75q-0.21875 -0.296875 -0.625 -0.65625q-0.390625 -0.359375 -0.703125 -0.578125q1.328125 -0.828125 2.015625 -1.921875q0.703125 -1.109375 0.953125 -2.1875q0.25 -1.078125 0.25 -1.828125l0 -4.859375zm-6.203125 -7.546875l7.484375 0l0 1.421875l-7.484375 0l0 -1.421875zm12.28125 0l7.578125 0l0 1.421875l-7.578125 0l0 -1.421875zm6.765625 -3.703125l1.984375 0l0 20.796875q0 0.875 -0.234375 1.390625q-0.21875 0.53125 -0.8125 0.796875q-0.609375 0.234375 -1.625 0.296875q-1.015625 0.078125 -2.5625 0.046875q-0.015625 -0.265625 -0.109375 -0.625q-0.09375 -0.359375 -0.234375 -0.734375q-0.125 -0.375 -0.265625 -0.640625q1.09375 0.03125 2.03125 0.03125q0.953125 0 1.296875 0q0.296875 -0.03125 0.40625 -0.140625q0.125 -0.125 0.125 -0.453125l0 -20.765625zm-18.859375 0l8.53125 0l0 8.984375l-8.53125 0l0 -1.546875l6.625 0l0 -5.90625l-6.625 0l0 -1.53125zm19.828125 0l0 1.53125l-7.046875 0l0 5.9375l7.046875 0l0 1.546875l-8.9375 0l0 -9.015625l8.9375 0zm-21.03125 0l1.96875 0l0 23.40625l-1.96875 0l0 -23.40625zm30.218658 2.640625q-0.046875 0.328125 -0.09375 0.8125q-0.03125 0.46875 -0.078125 0.953125q-0.03125 0.484375 -0.03125 0.828125q-0.03125 0.828125 -0.015625 1.875q0.015625 1.046875 0.046875 2.1875q0.046875 1.125 0.15625 2.25q0.203125 2.21875 0.703125 3.890625q0.515625 1.65625 1.25 2.59375q0.734375 0.921875 1.671875 0.921875q0.5 0 0.984375 -0.453125q0.484375 -0.46875 0.921875 -1.25q0.4375 -0.796875 0.796875 -1.765625q0.359375 -0.984375 0.59375 -1.96875l1.6875 1.890625q-0.796875 2.265625 -1.609375 3.59375q-0.8125 1.3125 -1.65625 1.90625q-0.84375 0.578125 -1.75 0.578125q-1.25 0 -2.421875 -0.90625q-1.171875 -0.921875 -2.03125 -2.984375q-0.84375 -2.078125 -1.21875 -5.515625q-0.140625 -1.171875 -0.203125 -2.53125q-0.0625 -1.359375 -0.078125 -2.578125q-0.015625 -1.234375 -0.015625 -2.0q0 -0.453125 -0.03125 -1.171875q-0.03125 -0.71875 -0.15625 -1.203125l2.578125 0.046875zm13.890625 0.75q0.71875 0.90625 1.375 2.125q0.65625 1.203125 1.203125 2.578125q0.546875 1.375 0.984375 2.84375q0.4375 1.46875 0.71875 2.921875q0.28125 1.453125 0.421875 2.78125l-2.140625 0.875q-0.15625 -1.8125 -0.5625 -3.6875q-0.390625 -1.875 -0.984375 -3.640625q-0.578125 -1.78125 -1.359375 -3.359375q-0.765625 -1.578125 -1.734375 -2.71875l2.078125 -0.71875zm8.293655 0.15625q0.765625 -0.015625 1.375 -0.0625q0.625 -0.046875 1.0 -0.0625q0.640625 -0.078125 1.84375 -0.203125q1.21875 -0.125 2.78125 -0.265625q1.578125 -0.15625 3.390625 -0.3125q1.8125 -0.15625 3.65625 -0.3125q1.46875 -0.140625 2.765625 -0.234375q1.3125 -0.09375 2.421875 -0.15625q1.125 -0.0625 2.015625 -0.09375l0 2.140625q-0.75 -0.03125 -1.71875 0q-0.953125 0.015625 -1.890625 0.109375q-0.921875 0.09375 -1.625 0.3125q-1.40625 0.453125 -2.546875 1.375q-1.125 0.921875 -1.921875 2.109375q-0.796875 1.171875 -1.21875 2.46875q-0.40625 1.296875 -0.40625 2.46875q0 1.578125 0.53125 2.734375q0.53125 1.15625 1.453125 1.953125q0.921875 0.796875 2.09375 1.3125q1.1875 0.5 2.5 0.75q1.3125 0.234375 2.609375 0.28125l-0.765625 2.21875q-1.46875 -0.0625 -2.984375 -0.421875q-1.5 -0.359375 -2.859375 -1.03125q-1.359375 -0.6875 -2.421875 -1.71875q-1.0625 -1.046875 -1.6875 -2.421875q-0.609375 -1.390625 -0.609375 -3.171875q0 -2.078125 0.734375 -3.84375q0.734375 -1.78125 1.875 -3.109375q1.15625 -1.34375 2.375 -2.0625q-0.84375 0.109375 -2.109375 0.25q-1.25 0.125 -2.703125 0.28125q-1.453125 0.140625 -2.890625 0.328125q-1.4375 0.1875 -2.703125 0.359375q-1.265625 0.171875 -2.125 0.359375l-0.234375 -2.328125zm40.78116 8.953125l1.359375 0l0 10.640625l-1.359375 0l0 -10.640625zm3.4375 0l1.359375 0l0 10.640625l-1.359375 0l0 -10.640625zm-9.375 -12.015625l14.6875 0l0 1.765625l-14.6875 0l0 -1.765625zm3.21875 16.15625l10.609375 0l0 1.546875l-10.609375 0l0 -1.546875zm-2.1875 -12.65625l1.796875 0l0 5.890625q0 1.4375 -0.125 3.140625q-0.125 1.703125 -0.453125 3.46875q-0.3125 1.75 -0.953125 3.4375q-0.640625 1.671875 -1.640625 3.09375q-0.171875 -0.1875 -0.4375 -0.421875q-0.265625 -0.21875 -0.546875 -0.421875q-0.28125 -0.203125 -0.515625 -0.28125q0.984375 -1.328125 1.5625 -2.859375q0.578125 -1.546875 0.84375 -3.15625q0.28125 -1.609375 0.375 -3.140625q0.09375 -1.53125 0.09375 -2.890625l0 -5.859375zm0.78125 0l12.203125 0l0 6.171875l-12.203125 0l0 -1.640625l10.265625 0l0 -2.890625l-10.265625 0l0 -1.640625zm0.65625 7.984375l11.46875 0l0 1.578125l-9.96875 0l0 9.828125l-1.5 0l0 -11.40625zm10.421875 0l1.6875 0l0 9.515625q0 0.59375 -0.125 0.96875q-0.109375 0.375 -0.484375 0.609375q-0.375 0.1875 -0.90625 0.25q-0.53125 0.0625 -1.28125 0.0625q-0.0625 -0.359375 -0.234375 -0.828125q-0.171875 -0.46875 -0.328125 -0.8125q0.5 0.015625 0.875 0.015625q0.375 0 0.53125 0q0.265625 -0.015625 0.265625 -0.28125l0 -9.5zm-18.125 -13.109375l1.734375 0.671875q-0.46875 0.984375 -1.03125 2.046875q-0.5625 1.0625 -1.109375 2.046875q-0.546875 0.984375 -1.046875 1.734375l-1.359375 -0.578125q0.46875 -0.78125 1.0 -1.8125q0.53125 -1.046875 1.015625 -2.140625q0.484375 -1.09375 0.796875 -1.96875zm2.828125 3.03125l1.65625 0.75q-0.875 1.5 -1.9375 3.171875q-1.046875 1.65625 -2.125 3.1875q-1.078125 1.53125 -2.0625 2.703125l-1.203125 -0.65625q0.71875 -0.890625 1.484375 -2.015625q0.78125 -1.140625 1.546875 -2.375q0.78125 -1.234375 1.453125 -2.453125q0.6875 -1.234375 1.1875 -2.3125zm-7.0625 2.484375l1.046875 -1.25q0.71875 0.640625 1.453125 1.421875q0.734375 0.765625 1.34375 1.515625q0.609375 0.734375 0.921875 1.359375l-1.078125 1.453125q-0.359375 -0.640625 -0.953125 -1.4375q-0.59375 -0.796875 -1.328125 -1.59375q-0.71875 -0.796875 -1.40625 -1.46875zm6.078125 3.578125l1.421875 -0.5625q0.5 0.875 0.953125 1.90625q0.453125 1.03125 0.8125 1.984375q0.359375 0.953125 0.5 1.734375l-1.53125 0.640625q-0.125 -0.75 -0.46875 -1.734375q-0.328125 -0.984375 -0.765625 -2.03125q-0.4375 -1.0625 -0.921875 -1.9375zm-6.3125 2.6875q1.65625 -0.046875 3.921875 -0.171875q2.265625 -0.140625 4.65625 -0.28125l0 1.703125q-2.203125 0.140625 -4.40625 0.28125q-2.203125 0.140625 -3.9375 0.25l-0.234375 -1.78125zm6.796875 3.78125l1.4375 -0.421875q0.484375 1.140625 0.84375 2.5q0.375 1.359375 0.484375 2.34375l-1.515625 0.484375q-0.078125 -1.015625 -0.421875 -2.375q-0.34375 -1.375 -0.828125 -2.53125zm-5.171875 -0.3125l1.625 0.265625q-0.265625 1.890625 -0.71875 3.703125q-0.453125 1.8125 -1.09375 3.09375q-0.140625 -0.109375 -0.421875 -0.234375q-0.265625 -0.140625 -0.5625 -0.265625q-0.296875 -0.140625 -0.515625 -0.21875q0.671875 -1.234375 1.0625 -2.921875q0.40625 -1.6875 0.625 -3.421875zm2.65625 -2.671875l1.734375 0l0 11.9375l-1.734375 0l0 -11.9375zm23.062408 3.734375l23.8125 0l0 1.6875l-23.8125 0l0 -1.6875zm4.484375 -9.75l16.46875 0l0 1.4375l-16.46875 0l0 -1.4375zm0 3.21875l16.546875 0l0 1.4375l-16.546875 0l0 -1.4375zm-0.328125 -6.640625l17.890625 0l0 1.65625l-17.890625 0l0 -1.65625zm7.203125 0.96875l1.921875 0l0 9.53125l-1.921875 0l0 -9.53125zm-0.53125 10.078125l2.0 0l0 10.3125l-2.0 0l0 -10.3125zm-0.4375 2.734375l1.578125 0.78125q-1.015625 1.03125 -2.34375 2.015625q-1.3125 0.96875 -2.828125 1.84375q-1.515625 0.859375 -3.09375 1.53125q-1.5625 0.6875 -3.03125 1.140625q-0.25 -0.375 -0.625 -0.890625q-0.359375 -0.5 -0.71875 -0.796875q1.5 -0.390625 3.0625 -0.96875q1.578125 -0.578125 3.0625 -1.328125q1.484375 -0.765625 2.75 -1.59375q1.28125 -0.84375 2.1875 -1.734375zm2.90625 -0.015625q0.90625 0.875 2.171875 1.71875q1.265625 0.828125 2.765625 1.546875q1.5 0.703125 3.0625 1.28125q1.578125 0.5625 3.0625 0.90625q-0.203125 0.21875 -0.453125 0.5q-0.234375 0.296875 -0.453125 0.59375q-0.203125 0.296875 -0.359375 0.5625q-1.5 -0.421875 -3.09375 -1.078125q-1.578125 -0.65625 -3.109375 -1.484375q-1.515625 -0.828125 -2.84375 -1.765625q-1.328125 -0.953125 -2.3125 -1.984375l1.5625 -0.796875zm-0.71875 -16.90625l2.25 0.296875q-0.53125 1.0625 -1.140625 2.125q-0.59375 1.046875 -1.125 1.796875l-1.765625 -0.375q0.484375 -0.8125 1.0 -1.890625q0.515625 -1.09375 0.78125 -1.953125zm-6.953125 -0.046875l2.078125 0.390625q-0.765625 1.46875 -1.78125 3.0q-1.015625 1.53125 -2.3125 3.03125q-1.28125 1.484375 -2.890625 2.796875q-0.15625 -0.21875 -0.40625 -0.484375q-0.25 -0.265625 -0.53125 -0.484375q-0.265625 -0.234375 -0.5 -0.359375q1.5 -1.1875 2.703125 -2.546875q1.21875 -1.359375 2.140625 -2.734375q0.921875 -1.390625 1.5 -2.609375zm-2.421875 4.3125l1.921875 0l0 8.796875l17.96875 0l0 1.59375l-19.890625 0l0 -10.390625z" fill-rule="nonzero"/></g></svg>