<svg version="1.1" viewBox="0.0 0.0 714.4435695538058 146.66666666666666" fill="none" stroke="none" stroke-linecap="square" stroke-miterlimit="10" xmlns:xlink="http://www.w3.org/1999/xlink" xmlns="http://www.w3.org/2000/svg"><clipPath id="p.0"><path d="m0 0l714.44354 0l0 146.66667l-714.44354 0l0 -146.66667z" clip-rule="nonzero"/></clipPath><g clip-path="url(#p.0)"><path fill="#000000" fill-opacity="0.0" d="m0 0l714.44354 0l0 146.66667l-714.44354 0z" fill-rule="evenodd"/><path fill="#e69138" d="m21.28971 90.771355l16.291338 -65.16536l77.244095 0l16.291344 65.16536z" fill-rule="evenodd"/><path fill="#e69138" d="m19.178478 122.55118l27.910767 -53.007874l58.22571 0l27.910767 53.007874z" fill-rule="evenodd"/><path fill="#e69138" d="m44.267326 30.023623l10.3149605 -24.535435l10.3149605 24.535435z" fill-rule="evenodd"/><path fill="#e69138" d="m85.86379 30.028114l10.314957 -24.535433l10.314964 24.535433z" fill-rule="evenodd"/><path fill="#000000" fill-opacity="0.0" d="m155.48819 25.606298l533.54333 0l0 96.94488l-533.54333 0z" fill-rule="evenodd"/><path fill="#000000" d="m170.44131 96.0463l0 -46.71875l31.171875 0l0 4.671875l-26.046875 0l0 16.703125l24.765625 0l0 4.609375l-24.765625 0l0 20.734375l-5.125 0zm50.74431 0.640625q-4.921875 0 -8.609375 -2.109375q-3.671875 -2.109375 -5.625 -6.015625q-1.953125 -3.90625 -1.953125 -9.15625q0 -5.3125 1.953125 -9.1875q1.953125 -3.875 5.625 -5.984375q3.6875 -2.109375 8.609375 -2.109375q5.0 0 8.609375 2.109375q3.625 2.109375 5.609375 5.984375q1.984375 3.875 1.984375 9.1875q0 5.25 -1.984375 9.15625q-1.984375 3.90625 -5.609375 6.015625q-3.609375 2.109375 -8.609375 2.109375zm0 -4.28125q5.25 0 8.21875 -3.453125q2.984375 -3.46875 2.984375 -9.546875q0 -6.140625 -2.984375 -9.5625q-2.96875 -3.421875 -8.21875 -3.421875q-5.234375 0 -8.21875 3.421875q-2.96875 3.421875 -2.96875 9.5625q0 6.078125 2.96875 9.546875q2.984375 3.453125 8.21875 3.453125zm19.904816 3.640625l11.71875 -16.765625l-11.515625 -16.515625l5.8125 0l9.031235 13.703125l0.125 0l9.09375 -13.703125l5.8125 0l-11.515625 16.515625l11.71875 16.765625l-5.828125 0l-9.28125 -13.953125l-0.125 0l-9.218735 13.953125l-5.828125 0zm77.96364 0.640625q-7.359375 0 -12.8125 -2.90625q-5.4375 -2.921875 -8.34375 -8.296875q-2.90625 -5.375 -2.90625 -12.796875q0 -7.421875 2.90625 -12.796875q2.90625 -5.375 8.34375 -8.28125q5.453125 -2.921875 12.8125 -2.921875q8.5625 0 15.15625 3.96875l-1.34375 4.546875q-6.390625 -3.84375 -13.625 -3.84375q-5.828125 0 -10.09375 2.375q-4.25 2.359375 -6.5625 6.6875q-2.296875 4.3125 -2.296875 10.265625q0 5.890625 2.296875 10.25q2.3125 4.34375 6.5625 6.71875q4.265625 2.359375 10.09375 2.359375q7.109375 0 13.625 -3.84375l1.34375 4.546875q-6.59375 3.96875 -15.15625 3.96875zm36.211304 0q-4.921875 0 -8.609375 -2.109375q-3.671875 -2.109375 -5.625 -6.015625q-1.953125 -3.90625 -1.953125 -9.15625q0 -5.3125 1.953125 -9.1875q1.953125 -3.875 5.625 -5.984375q3.6875 -2.109375 8.609375 -2.109375q5.0 0 8.609375 2.109375q3.625 2.109375 5.609375 5.984375q1.984375 3.875 1.984375 9.1875q0 5.25 -1.984375 9.15625q-1.984375 3.90625 -5.609375 6.015625q-3.609375 2.109375 -8.609375 2.109375zm0 -4.28125q5.25 0 8.21875 -3.453125q2.984375 -3.46875 2.984375 -9.546875q0 -6.140625 -2.984375 -9.5625q-2.96875 -3.421875 -8.21875 -3.421875q-5.234375 0 -8.21875 3.421875q-2.96875 3.421875 -2.96875 9.5625q0 6.078125 2.96875 9.546875q2.984375 3.453125 8.21875 3.453125zm36.16107 4.28125q-6.71875 0 -10.46875 -4.578125q-3.734375 -4.578125 -3.734375 -12.703125q0 -8.125 3.734375 -12.703125q3.75 -4.578125 10.46875 -4.578125q3.59375 0 6.65625 1.34375q3.078125 1.34375 4.734375 3.78125l0.140625 0l0 -17.921875l4.984375 0l0 46.71875l-4.734375 0l-0.0625 -4.484375l-0.125 0q-1.734375 2.375 -4.875 3.75q-3.125 1.375 -6.71875 1.375zm1.03125 -4.28125q3.0625 0 5.390625 -1.25q2.34375 -1.25 3.71875 -3.421875q1.390625 -2.1875 1.390625 -5.0l0 -6.65625q0 -2.8125 -1.390625 -4.984375q-1.375 -2.1875 -3.71875 -3.421875q-2.328125 -1.25 -5.390625 -1.25q-4.796875 0 -7.515625 3.359375q-2.71875 3.359375 -2.71875 9.625q0 6.265625 2.71875 9.640625q2.71875 3.359375 7.515625 3.359375zm40.37918 4.28125q-8.0 0 -12.359375 -4.46875q-4.34375 -4.484375 -4.34375 -12.8125q0 -8.0625 4.1875 -12.671875q4.203125 -4.609375 11.625 -4.609375q7.09375 0 10.875 4.328125q3.78125 4.3125 3.78125 12.375q0 0.640625 0 1.34375q0 0.703125 -0.0625 1.21875l-27.65625 0l0 -4.09375l23.9375 0l-0.953125 1.34375q0 -6.203125 -2.5 -9.28125q-2.5 -3.078125 -7.421875 -3.078125q-5.25 0 -8.0625 3.296875q-2.8125 3.296875 -2.8125 9.375l0 1.28125q0 6.015625 3.0 9.09375q3.015625 3.078125 8.828125 3.078125q3.078125 0 5.953125 -0.796875q2.890625 -0.8125 5.1875 -2.34375l1.09375 4.03125q-2.4375 1.59375 -5.609375 2.5q-3.171875 0.890625 -6.6875 0.890625zm40.707947 -0.640625l0 -46.71875l29.6875 0l0 4.609375l-24.5625 0l0 15.234375l23.296875 0l0 4.53125l-23.296875 0l0 17.734375l24.5625 0l0 4.609375l-29.6875 0zm49.465424 0.640625q-6.71875 0 -10.46875 -4.578125q-3.734375 -4.578125 -3.734375 -12.703125q0 -8.125 3.734375 -12.703125q3.75 -4.578125 10.46875 -4.578125q3.59375 0 6.65625 1.34375q3.078125 1.34375 4.734375 3.78125l0.140625 0l0 -17.921875l4.984375 0l0 46.71875l-4.734375 0l-0.0625 -4.484375l-0.125 0q-1.734375 2.375 -4.875 3.75q-3.125 1.375 -6.71875 1.375zm1.03125 -4.28125q3.0625 0 5.390625 -1.25q2.34375 -1.25 3.71875 -3.421875q1.390625 -2.1875 1.390625 -5.0l0 -6.65625q0 -2.8125 -1.390625 -4.984375q-1.375 -2.1875 -3.71875 -3.421875q-2.328125 -1.25 -5.390625 -1.25q-4.796875 0 -7.515625 3.359375q-2.71875 3.359375 -2.71875 9.625q0 6.265625 2.71875 9.640625q2.71875 3.359375 7.515625 3.359375zm28.0979 3.640625l0 -33.28125l5.109375 0l0 33.28125l-5.109375 0zm2.5625 -39.609375q-1.671875 0 -2.734375 -1.0625q-1.046875 -1.0625 -1.046875 -2.78125q0 -1.671875 1.046875 -2.71875q1.0625 -1.0625 2.734375 -1.0625q1.71875 0 2.765625 1.0625q1.0625 1.046875 1.0625 2.71875q0 1.71875 -1.0625 2.78125q-1.046875 1.0625 -2.765625 1.0625zm30.457458 40.25q-5.765625 0 -8.359375 -2.5q-2.578125 -2.5 -2.578125 -8.1875l0 -18.9375l-8.078125 0l0 -4.296875l8.078125 0l0 -10.875l5.109375 0l0 10.875l12.359375 0l0 4.296875l-12.359375 0l0 18.296875q0 3.71875 1.53125 5.28125q1.546875 1.5625 5.1875 1.5625q1.40625 0 2.5625 -0.21875q1.15625 -0.21875 2.4375 -0.671875l0.703125 4.21875q-1.671875 0.578125 -3.234375 0.859375q-1.5625 0.296875 -3.359375 0.296875zm27.577576 0q-4.921875 0 -8.609375 -2.109375q-3.671875 -2.109375 -5.625 -6.015625q-1.953125 -3.90625 -1.953125 -9.15625q0 -5.3125 1.953125 -9.1875q1.953125 -3.875 5.625 -5.984375q3.6875 -2.109375 8.609375 -2.109375q5.0 0 8.609375 2.109375q3.625 2.109375 5.609375 5.984375q1.984375 3.875 1.984375 9.1875q0 5.25 -1.984375 9.15625q-1.984375 3.90625 -5.609375 6.015625q-3.609375 2.109375 -8.609375 2.109375zm0 -4.28125q5.25 0 8.21875 -3.453125q2.984375 -3.46875 2.984375 -9.546875q0 -6.140625 -2.984375 -9.5625q-2.96875 -3.421875 -8.21875 -3.421875q-5.234375 0 -8.21875 3.421875q-2.96875 3.421875 -2.96875 9.5625q0 6.078125 2.96875 9.546875q2.984375 3.453125 8.21875 3.453125zm24.32544 3.640625l0 -33.28125l4.859375 0l0.0625 6.984375l0.140625 0q1.46875 -2.375 3.765625 -4.0625q2.3125 -1.703125 5.25 -2.625q2.953125 -0.9375 6.203125 -0.9375l0 4.484375q-4.21875 0 -7.671875 1.734375q-3.453125 1.71875 -5.46875 4.609375q-2.015625 2.875 -2.015625 6.453125l0 16.640625l-5.125 0z" fill-rule="nonzero"/></g></svg>