<svg version="1.1" viewBox="0.0 0.0 965.7401574803149 246.29658792650918" fill="none" stroke="none" stroke-linecap="square" stroke-miterlimit="10" xmlns:xlink="http://www.w3.org/1999/xlink" xmlns="http://www.w3.org/2000/svg"><clipPath id="p.0"><path d="m0 0l965.7402 0l0 246.29659l-965.7402 0l0 -246.29659z" clip-rule="nonzero"/></clipPath><g clip-path="url(#p.0)"><path fill="#000000" fill-opacity="0.0" d="m0 0l965.7402 0l0 246.29659l-965.7402 0z" fill-rule="evenodd"/><path fill="#ffe599" d="m31.393702 216.65224l100.69291 -131.52756l100.69292 131.52756z" fill-rule="evenodd"/><path fill="#ffe599" d="m40.330708 163.59203l25.87402 -103.49606l131.87401 0l25.874023 103.49606z" fill-rule="evenodd"/><path fill="#ffe599" d="m136.82939 61.40551l30.732437 -41.16535l14.558899 41.16535z" fill-rule="evenodd"/><path fill="#ffe599" d="m81.93964 61.40551l18.747894 -41.16535l26.543442 41.16535z" fill-rule="evenodd"/><path fill="#ffe599" d="m42.37008 180.59973l32.329994 -82.078735l114.77309 0l32.329987 82.078735z" fill-rule="evenodd"/><path fill="#000000" fill-opacity="0.0" d="m532.2362 106.29265l364.56696 0l0 42.015747l-364.56696 0z" fill-rule="evenodd"/><path fill="#000000" fill-opacity="0.0" d="m253.25197 59.42651l657.10236 0l0 135.74803l-657.10236 0z" fill-rule="evenodd"/><path fill="#434343" d="m302.18948 103.399q0 0.890625 -0.09375 1.546875q-0.09375 0.65625 -0.328125 1.0625q-0.234375 0.390625 -0.546875 0.578125q-0.296875 0.1875 -0.625 0.1875l-22.21875 0l0 20.625l21.0 0q0.328125 0 0.625 0.171875q0.3125 0.15625 0.546875 0.53125q0.234375 0.375 0.328125 1.015625q0.09375 0.625 0.09375 1.609375q0 0.890625 -0.09375 1.53125q-0.09375 0.625 -0.328125 1.03125q-0.234375 0.390625 -0.546875 0.609375q-0.296875 0.203125 -0.625 0.203125l-21.0 0l0 25.265625q0 0.328125 -0.1875 0.640625q-0.1875 0.296875 -0.65625 0.46875q-0.46875 0.15625 -1.21875 0.265625q-0.75 0.125 -1.96875 0.125q-1.125 0 -1.921875 -0.125q-0.796875 -0.109375 -1.265625 -0.265625q-0.46875 -0.171875 -0.65625 -0.46875q-0.1875 -0.3125 -0.1875 -0.640625l0 -56.15625q0 -1.828125 0.953125 -2.546875q0.96875 -0.734375 2.046875 -0.734375l27.28125 0q0.328125 0 0.625 0.1875q0.3125 0.1875 0.546875 0.609375q0.234375 0.421875 0.328125 1.109375q0.09375 0.671875 0.09375 1.5625zm49.265625 34.453125q0 5.15625 -1.359375 9.5q-1.359375 4.328125 -4.0625 7.46875q-2.6875 3.140625 -6.75 4.90625q-4.046875 1.75 -9.390625 1.75q-5.203125 0 -9.078125 -1.546875q-3.859375 -1.546875 -6.4375 -4.5q-2.578125 -2.953125 -3.84375 -7.171875q-1.265625 -4.21875 -1.265625 -9.5625q0 -5.15625 1.328125 -9.484375q1.34375 -4.34375 4.03125 -7.484375q2.703125 -3.140625 6.734375 -4.875q4.03125 -1.734375 9.421875 -1.734375q5.203125 0 9.0625 1.546875q3.875 1.546875 6.453125 4.5q2.578125 2.953125 3.859375 7.171875q1.296875 4.21875 1.296875 9.515625zm-8.15625 0.515625q0 -3.421875 -0.640625 -6.46875q-0.625 -3.046875 -2.078125 -5.34375q-1.453125 -2.296875 -3.9375 -3.625q-2.484375 -1.34375 -6.1875 -1.34375q-3.421875 0 -5.890625 1.21875q-2.453125 1.21875 -4.046875 3.453125q-1.59375 2.21875 -2.375 5.265625q-0.765625 3.046875 -0.765625 6.65625q0 3.46875 0.625 6.515625q0.640625 3.046875 2.109375 5.328125q1.484375 2.265625 3.96875 3.609375q2.484375 1.328125 6.1875 1.328125q3.375 0 5.859375 -1.21875q2.484375 -1.21875 4.078125 -3.421875q1.59375 -2.203125 2.34375 -5.25q0.75 -3.046875 0.75 -6.703125zm49.640625 20.15625q0.375 0.65625 0.375 1.109375q0 0.4375 -0.453125 0.71875q-0.4375 0.28125 -1.359375 0.390625q-0.90625 0.125 -2.359375 0.125q-1.40625 0 -2.234375 -0.078125q-0.8125 -0.0625 -1.3125 -0.21875q-0.484375 -0.171875 -0.75 -0.421875q-0.25 -0.265625 -0.4375 -0.59375l-10.125 -16.734375l-10.078125 16.734375q-0.1875 0.328125 -0.453125 0.59375q-0.25 0.25 -0.75 0.421875q-0.484375 0.15625 -1.28125 0.21875q-0.796875 0.078125 -2.109375 0.078125q-1.359375 0 -2.234375 -0.125q-0.859375 -0.109375 -1.265625 -0.390625q-0.390625 -0.28125 -0.375 -0.71875q0.03125 -0.453125 0.453125 -1.109375l13.125 -20.578125l-12.421875 -19.828125q-0.375 -0.65625 -0.40625 -1.09375q-0.015625 -0.453125 0.421875 -0.75q0.453125 -0.3125 1.359375 -0.40625q0.921875 -0.09375 2.421875 -0.09375q1.359375 0 2.171875 0.078125q0.828125 0.0625 1.296875 0.203125q0.46875 0.140625 0.703125 0.375q0.234375 0.234375 0.421875 0.5625l9.609375 15.703125l9.75 -15.703125q0.1875 -0.28125 0.421875 -0.515625q0.234375 -0.234375 0.625 -0.390625q0.40625 -0.171875 1.125 -0.234375q0.734375 -0.078125 2.0 -0.078125q1.359375 0 2.21875 0.09375q0.875 0.09375 1.296875 0.359375q0.421875 0.25 0.375 0.71875q-0.046875 0.46875 -0.46875 1.171875l-12.328125 19.59375l13.03125 20.8125zm72.703125 -6.515625q0 0.75 -0.046875 1.3125q-0.046875 0.5625 -0.171875 0.984375q-0.109375 0.421875 -0.296875 0.75q-0.1875 0.328125 -0.65625 0.796875q-0.46875 0.46875 -1.96875 1.4375q-1.5 0.953125 -3.734375 1.875q-2.21875 0.90625 -5.109375 1.53125q-2.875 0.640625 -6.296875 0.640625q-5.90625 0 -10.671875 -1.96875q-4.75 -1.96875 -8.109375 -5.8125q-3.34375 -3.84375 -5.15625 -9.484375q-1.796875 -5.65625 -1.796875 -13.015625q0 -7.546875 1.9375 -13.453125q1.953125 -5.90625 5.46875 -10.0q3.515625 -4.109375 8.40625 -6.265625q4.90625 -2.15625 10.859375 -2.15625q2.625 0 5.109375 0.5q2.484375 0.484375 4.59375 1.234375q2.109375 0.75 3.75 1.734375q1.640625 0.984375 2.265625 1.625q0.640625 0.625 0.828125 0.953125q0.1875 0.328125 0.296875 0.78125q0.125 0.4375 0.1875 1.046875q0.078125 0.609375 0.078125 1.453125q0 0.9375 -0.09375 1.59375q-0.09375 0.65625 -0.28125 1.109375q-0.1875 0.4375 -0.453125 0.65625q-0.25 0.203125 -0.625 0.203125q-0.65625 0 -1.828125 -0.90625q-1.171875 -0.921875 -3.03125 -2.015625q-1.84375 -1.109375 -4.5 -2.015625q-2.640625 -0.921875 -6.34375 -0.921875q-4.03125 0 -7.34375 1.625q-3.296875 1.609375 -5.640625 4.75q-2.34375 3.140625 -3.640625 7.671875q-1.28125 4.515625 -1.28125 10.328125q0 5.765625 1.234375 10.203125q1.25 4.421875 3.5625 7.40625q2.328125 2.96875 5.703125 4.5q3.375 1.515625 7.640625 1.515625q3.609375 0 6.296875 -0.890625q2.703125 -0.890625 4.59375 -1.984375q1.90625 -1.109375 3.125 -2.0q1.21875 -0.890625 1.921875 -0.890625q0.328125 0 0.5625 0.140625q0.234375 0.140625 0.375 0.546875q0.140625 0.390625 0.203125 1.09375q0.078125 0.703125 0.078125 1.78125zm49.03122 -14.15625q0 5.15625 -1.359375 9.5q-1.3593445 4.328125 -4.0624695 7.46875q-2.6875 3.140625 -6.75 4.90625q-4.046875 1.75 -9.390625 1.75q-5.203125 0 -9.078125 -1.546875q-3.859375 -1.546875 -6.4375 -4.5q-2.578125 -2.953125 -3.84375 -7.171875q-1.265625 -4.21875 -1.265625 -9.5625q0 -5.15625 1.328125 -9.484375q1.34375 -4.34375 4.03125 -7.484375q2.703125 -3.140625 6.734375 -4.875q4.03125 -1.734375 9.421875 -1.734375q5.203125 0 9.0625 1.546875q3.875 1.546875 6.453125 4.5q2.5780945 2.953125 3.8593445 7.171875q1.296875 4.21875 1.296875 9.515625zm-8.1562195 0.515625q0 -3.421875 -0.640625 -6.46875q-0.625 -3.046875 -2.078125 -5.34375q-1.453125 -2.296875 -3.9375 -3.625q-2.484375 -1.34375 -6.1875 -1.34375q-3.421875 0 -5.890625 1.21875q-2.453125 1.21875 -4.046875 3.453125q-1.59375 2.21875 -2.375 5.265625q-0.765625 3.046875 -0.765625 6.65625q0 3.46875 0.625 6.515625q0.640625 3.046875 2.109375 5.328125q1.484375 2.265625 3.96875 3.609375q2.484375 1.328125 6.1875 1.328125q3.375 0 5.859375 -1.21875q2.484375 -1.21875 4.078125 -3.421875q1.59375 -2.203125 2.34375 -5.25q0.75 -3.046875 0.75 -6.703125zm55.68747 21.046875q0 0.375 -0.171875 0.65625q-0.15625 0.28125 -0.5625 0.453125q-0.390625 0.15625 -1.046875 0.25q-0.65625 0.09375 -1.59375 0.09375q-0.984375 0 -1.640625 -0.09375q-0.65625 -0.09375 -1.078125 -0.25q-0.421875 -0.171875 -0.609375 -0.453125q-0.1875 -0.28125 -0.1875 -0.65625l0 -5.578125q-3.328125 3.609375 -6.921875 5.625q-3.578125 2.015625 -7.84375 2.015625q-4.640625 0 -7.921875 -1.796875q-3.28125 -1.8125 -5.328125 -4.875q-2.03125 -3.078125 -2.96875 -7.21875q-0.9375 -4.15625 -0.9375 -8.75q0 -5.4375 1.171875 -9.8125q1.171875 -4.390625 3.46875 -7.484375q2.296875 -3.09375 5.6875 -4.75q3.40625 -1.671875 7.859375 -1.671875q3.703125 0 6.765625 1.625q3.078125 1.609375 6.078125 4.75l0 -24.515625q0 -0.328125 0.15625 -0.625q0.171875 -0.3125 0.640625 -0.46875q0.46875 -0.171875 1.1875 -0.28125q0.734375 -0.125 1.859375 -0.125q1.171875 0 1.921875 0.125q0.75 0.109375 1.171875 0.28125q0.421875 0.15625 0.625 0.46875q0.21875 0.296875 0.21875 0.625l0 62.4375zm-7.78125 -29.671875q-3.140625 -3.890625 -6.078125 -5.921875q-2.921875 -2.046875 -6.109375 -2.046875q-2.953125 0 -5.015625 1.40625q-2.0625 1.40625 -3.359375 3.703125q-1.28125 2.296875 -1.875 5.203125q-0.578125 2.90625 -0.578125 5.90625q0 3.1875 0.484375 6.234375q0.5 3.046875 1.71875 5.421875q1.21875 2.359375 3.234375 3.796875q2.015625 1.421875 5.0625 1.421875q1.546875 0 2.96875 -0.421875q1.4375 -0.421875 2.9375 -1.40625q1.5 -0.984375 3.140625 -2.546875q1.640625 -1.578125 3.46875 -3.875l0 -16.875zm58.078125 6.75q0 1.828125 -0.921875 2.609375q-0.90625 0.765625 -2.078125 0.765625l-27.65625 0q0 3.515625 0.703125 6.328125q0.703125 2.8125 2.34375 4.828125q1.640625 2.015625 4.265625 3.09375q2.625 1.078125 6.421875 1.078125q3.0 0 5.34375 -0.484375q2.34375 -0.5 4.046875 -1.109375q1.71875 -0.609375 2.8125 -1.09375q1.109375 -0.5 1.671875 -0.5q0.328125 0 0.578125 0.171875q0.265625 0.15625 0.40625 0.484375q0.140625 0.328125 0.203125 0.921875q0.078125 0.578125 0.078125 1.421875q0 0.609375 -0.046875 1.0625q-0.046875 0.4375 -0.125 0.796875q-0.0625 0.34375 -0.234375 0.625q-0.15625 0.28125 -0.421875 0.546875q-0.25 0.25 -1.515625 0.84375q-1.265625 0.578125 -3.28125 1.140625q-2.015625 0.5625 -4.671875 1.0q-2.640625 0.453125 -5.640625 0.453125q-5.203125 0 -9.125 -1.453125q-3.90625 -1.453125 -6.578125 -4.3125q-2.671875 -2.859375 -4.03125 -7.171875q-1.359375 -4.3125 -1.359375 -10.03125q0 -5.4375 1.40625 -9.765625q1.40625 -4.34375 4.046875 -7.359375q2.65625 -3.03125 6.40625 -4.640625q3.75 -1.625 8.390625 -1.625q4.96875 0 8.453125 1.59375q3.5 1.59375 5.75 4.296875q2.25 2.6875 3.296875 6.328125q1.0625 3.625 1.0625 7.75l0 1.40625zm-7.78125 -2.296875q0.140625 -6.09375 -2.703125 -9.5625q-2.828125 -3.46875 -8.40625 -3.46875q-2.859375 0 -5.015625 1.078125q-2.15625 1.078125 -3.609375 2.859375q-1.453125 1.78125 -2.25 4.15625q-0.796875 2.359375 -0.890625 4.9375l22.875 0zm75.890625 23.0625q0 0.84375 -0.09375 1.484375q-0.09375 0.625 -0.328125 1.046875q-0.234375 0.421875 -0.546875 0.609375q-0.296875 0.1875 -0.671875 0.1875l-29.109375 0q-1.078125 0 -2.046875 -0.71875q-0.953125 -0.734375 -0.953125 -2.5625l0 -54.09375q0 -1.828125 0.953125 -2.546875q0.96875 -0.734375 2.046875 -0.734375l28.78125 0q0.375 0 0.671875 0.1875q0.3125 0.1875 0.5 0.609375q0.1875 0.421875 0.296875 1.0625q0.125 0.625 0.125 1.5625q0 0.84375 -0.125 1.484375q-0.109375 0.625 -0.296875 1.03125q-0.1875 0.390625 -0.5 0.578125q-0.296875 0.1875 -0.671875 0.1875l-23.71875 0l0 19.03125l20.34375 0q0.375 0 0.671875 0.21875q0.3125 0.203125 0.515625 0.578125q0.21875 0.375 0.3125 1.03125q0.09375 0.65625 0.09375 1.546875q0 0.84375 -0.09375 1.453125q-0.09375 0.609375 -0.3125 0.984375q-0.203125 0.375 -0.515625 0.546875q-0.296875 0.15625 -0.671875 0.15625l-20.34375 0l0 21.703125l24.046875 0q0.375 0 0.671875 0.1875q0.3125 0.1875 0.546875 0.59375q0.234375 0.390625 0.328125 1.03125q0.09375 0.625 0.09375 1.5625zm46.96875 2.15625q0 0.375 -0.171875 0.65625q-0.15625 0.28125 -0.5625 0.453125q-0.390625 0.15625 -1.046875 0.25q-0.65625 0.09375 -1.59375 0.09375q-0.984375 0 -1.640625 -0.09375q-0.65625 -0.09375 -1.078125 -0.25q-0.421875 -0.171875 -0.609375 -0.453125q-0.1875 -0.28125 -0.1875 -0.65625l0 -5.578125q-3.328125 3.609375 -6.921875 5.625q-3.578125 2.015625 -7.84375 2.015625q-4.640625 0 -7.921875 -1.796875q-3.28125 -1.8125 -5.328125 -4.875q-2.03125 -3.078125 -2.96875 -7.21875q-0.9375 -4.15625 -0.9375 -8.75q0 -5.4375 1.171875 -9.8125q1.171875 -4.390625 3.46875 -7.484375q2.296875 -3.09375 5.6875 -4.75q3.40625 -1.671875 7.859375 -1.671875q3.703125 0 6.765625 1.625q3.078125 1.609375 6.078125 4.75l0 -24.515625q0 -0.328125 0.15625 -0.625q0.171875 -0.3125 0.640625 -0.46875q0.46875 -0.171875 1.1875 -0.28125q0.734375 -0.125 1.859375 -0.125q1.171875 0 1.921875 0.125q0.75 0.109375 1.171875 0.28125q0.421875 0.15625 0.625 0.46875q0.21875 0.296875 0.21875 0.625l0 62.4375zm-7.78125 -29.671875q-3.140625 -3.890625 -6.078125 -5.921875q-2.921875 -2.046875 -6.109375 -2.046875q-2.953125 0 -5.015625 1.40625q-2.0625 1.40625 -3.359375 3.703125q-1.28125 2.296875 -1.875 5.203125q-0.578125 2.90625 -0.578125 5.90625q0 3.1875 0.484375 6.234375q0.5 3.046875 1.71875 5.421875q1.21875 2.359375 3.234375 3.796875q2.015625 1.421875 5.0625 1.421875q1.546875 0 2.96875 -0.421875q1.4375 -0.421875 2.9375 -1.40625q1.5 -0.984375 3.140625 -2.546875q1.640625 -1.578125 3.46875 -3.875l0 -16.875zm29.8125 29.671875q0 0.375 -0.1875 0.640625q-0.1875 0.25 -0.609375 0.4375q-0.421875 0.1875 -1.171875 0.28125q-0.75 0.09375 -1.921875 0.09375q-1.125 0 -1.875 -0.09375q-0.75 -0.09375 -1.203125 -0.28125q-0.4375 -0.1875 -0.609375 -0.4375q-0.15625 -0.265625 -0.15625 -0.640625l0 -42.1875q0 -0.328125 0.15625 -0.609375q0.171875 -0.28125 0.609375 -0.46875q0.453125 -0.1875 1.203125 -0.28125q0.75 -0.09375 1.875 -0.09375q1.171875 0 1.921875 0.09375q0.75 0.09375 1.171875 0.28125q0.421875 0.1875 0.609375 0.46875q0.1875 0.28125 0.1875 0.609375l0 42.1875zm0.890625 -56.4375q0 2.71875 -1.03125 3.703125q-1.03125 0.984375 -3.796875 0.984375q-2.71875 0 -3.734375 -0.953125q-1.0 -0.96875 -1.0 -3.640625q0 -2.71875 1.03125 -3.703125q1.03125 -0.984375 3.796875 -0.984375q2.71875 0 3.71875 0.96875q1.015625 0.953125 1.015625 3.625zm35.34375 53.34375q0 1.359375 -0.1875 2.15625q-0.1875 0.796875 -0.5625 1.171875q-0.375 0.375 -1.125 0.703125q-0.75 0.328125 -1.71875 0.53125q-0.953125 0.21875 -2.03125 0.359375q-1.078125 0.140625 -2.15625 0.140625q-3.28125 0 -5.625 -0.859375q-2.34375 -0.875 -3.84375 -2.625q-1.5 -1.765625 -2.1875 -4.453125q-0.671875 -2.703125 -0.671875 -6.359375l0 -24.65625l-5.90625 0q-0.703125 0 -1.125 -0.75q-0.421875 -0.75 -0.421875 -2.4375q0 -0.890625 0.109375 -1.5q0.125 -0.609375 0.3125 -1.0q0.1875 -0.40625 0.484375 -0.5625q0.3125 -0.171875 0.6875 -0.171875l5.859375 0l0 -10.03125q0 -0.328125 0.15625 -0.609375q0.171875 -0.28125 0.609375 -0.484375q0.453125 -0.21875 1.203125 -0.3125q0.75 -0.09375 1.875 -0.09375q1.171875 0 1.921875 0.09375q0.75 0.09375 1.171875 0.3125q0.421875 0.203125 0.609375 0.484375q0.1875 0.28125 0.1875 0.609375l0 10.03125l10.828125 0q0.375 0 0.65625 0.171875q0.28125 0.15625 0.484375 0.5625q0.21875 0.390625 0.3125 1.0q0.09375 0.609375 0.09375 1.5q0 1.6875 -0.421875 2.4375q-0.421875 0.75 -1.125 0.75l-10.828125 0l0 23.53125q0 4.359375 1.28125 6.59375q1.296875 2.21875 4.625 2.21875q1.078125 0 1.921875 -0.203125q0.84375 -0.21875 1.5 -0.453125q0.65625 -0.234375 1.125 -0.4375q0.46875 -0.21875 0.84375 -0.21875q0.234375 0 0.4375 0.125q0.21875 0.109375 0.328125 0.4375q0.125 0.328125 0.21875 0.890625q0.09375 0.5625 0.09375 1.40625zm48.515625 -18.46875q0 5.15625 -1.359375 9.5q-1.359375 4.328125 -4.0625 7.46875q-2.6875 3.140625 -6.75 4.90625q-4.046875 1.75 -9.390625 1.75q-5.203125 0 -9.078125 -1.546875q-3.859375 -1.546875 -6.4375 -4.5q-2.578125 -2.953125 -3.84375 -7.171875q-1.265625 -4.21875 -1.265625 -9.5625q0 -5.15625 1.328125 -9.484375q1.34375 -4.34375 4.03125 -7.484375q2.703125 -3.140625 6.734375 -4.875q4.03125 -1.734375 9.421875 -1.734375q5.203125 0 9.0625 1.546875q3.875 1.546875 6.453125 4.5q2.578125 2.953125 3.859375 7.171875q1.296875 4.21875 1.296875 9.515625zm-8.15625 0.515625q0 -3.421875 -0.640625 -6.46875q-0.625 -3.046875 -2.078125 -5.34375q-1.453125 -2.296875 -3.9375 -3.625q-2.484375 -1.34375 -6.1875 -1.34375q-3.421875 0 -5.890625 1.21875q-2.453125 1.21875 -4.046875 3.453125q-1.59375 2.21875 -2.375 5.265625q-0.765625 3.046875 -0.765625 6.65625q0 3.46875 0.625 6.515625q0.640625 3.046875 2.109375 5.328125q1.484375 2.265625 3.96875 3.609375q2.484375 1.328125 6.1875 1.328125q3.375 0 5.859375 -1.21875q2.484375 -1.21875 4.078125 -3.421875q1.59375 -2.203125 2.34375 -5.25q0.75 -3.046875 0.75 -6.703125zm44.203125 -18.375q0 1.03125 -0.046875 1.734375q-0.046875 0.703125 -0.1875 1.109375q-0.140625 0.390625 -0.359375 0.609375q-0.203125 0.203125 -0.578125 0.203125q-0.375 0 -0.921875 -0.203125q-0.53125 -0.21875 -1.21875 -0.421875q-0.671875 -0.21875 -1.515625 -0.40625q-0.84375 -0.1875 -1.828125 -0.1875q-1.171875 0 -2.296875 0.46875q-1.125 0.46875 -2.375 1.546875q-1.234375 1.078125 -2.59375 2.859375q-1.359375 1.78125 -3.0 4.359375l0 27.75q0 0.375 -0.1875 0.640625q-0.1875 0.25 -0.609375 0.4375q-0.421875 0.1875 -1.171875 0.28125q-0.75 0.09375 -1.921875 0.09375q-1.125 0 -1.875 -0.09375q-0.75 -0.09375 -1.203125 -0.28125q-0.4375 -0.1875 -0.609375 -0.4375q-0.15625 -0.265625 -0.15625 -0.640625l0 -42.1875q0 -0.375 0.140625 -0.625q0.140625 -0.265625 0.5625 -0.46875q0.421875 -0.21875 1.078125 -0.28125q0.65625 -0.078125 1.734375 -0.078125q1.03125 0 1.703125 0.078125q0.6875 0.0625 1.0625 0.28125q0.375 0.203125 0.53125 0.46875q0.171875 0.25 0.171875 0.625l0 6.140625q1.734375 -2.53125 3.25 -4.125q1.53125 -1.59375 2.890625 -2.5q1.359375 -0.921875 2.6875 -1.265625q1.34375 -0.359375 2.703125 -0.359375q0.609375 0 1.375 0.078125q0.78125 0.0625 1.625 0.25q0.84375 0.1875 1.515625 0.421875q0.6875 0.234375 0.96875 0.46875q0.28125 0.234375 0.375 0.453125q0.09375 0.203125 0.15625 0.53125q0.078125 0.328125 0.09375 0.96875q0.03125 0.625 0.03125 1.703125z" fill-rule="nonzero"/></g></svg>